{
  "accessors": [
    {
      "bufferView": 2,
      "componentType": 5126,
      "count": 65532,
      "max": [
        0.996491014957428,
        0.9967899918556213,
        0.9996749758720398
      ],
      "min": [
        -0.9337120056152344,
        -0.996491014957428,
        -0.9996749758720398
      ],
      "type": "VEC3"
    },
    {
      "bufferView": 2,
      "byteOffset": 786384,
      "componentType": 5126,
      "count": 65532,
      "max": [
        0.9996982216835022,
        0.9999984502792358,
        1.0
      ],
      "min": [
        -0.9367108345031738,
        -0.9996982216835022,
        -1.0
      ],
      "type": "VEC3"
    },
    {
      "bufferView": 1,
      "componentType": 5126,
      "count": 65532,
      "max": [
        0.9611949920654297,
        0.9908419847488403
      ],
      "min": [
        0.3811190128326416,
        0.10972099751234055
      ],
      "type": "VEC2"
    },
    {
      "bufferView": 0,
      "componentType": 5125,
      "count": 378831,
      "type": "SCALAR"
    },
    {
      "bufferView": 2,
      "byteOffset": 1572768,
      "componentType": 5126,
      "count": 65532,
      "max": [
        0.9967910051345825,
        0.6613889932632446,
        0.9968439936637878
      ],
      "min": [
        -0.9967910051345825,
        -0.9967920184135437,
        -0.9968439936637878
      ],
      "type": "VEC3"
    },
    {
      "bufferView": 2,
      "byteOffset": 2359152,
      "componentType": 5126,
      "count": 65532,
      "max": [
        0.9999984502792358,
        0.664111852645874,
        0.9981223344802856
      ],
      "min": [
        -0.9999984502792358,
        -0.9999984502792358,
        -0.9981197118759155
      ],
      "type": "VEC3"
    },
    {
      "bufferView": 1,
      "byteOffset": 524256,
      "componentType": 5126,
      "count": 65532,
      "max": [
        0.7883219718933105,
        0.9791010022163391
      ],
      "min": [
        0.2504059970378876,
        0.013492999598383904
      ],
      "type": "VEC2"
    },
    {
      "bufferView": 0,
      "byteOffset": 1515324,
      "componentType": 5125,
      "count": 380475,
      "type": "SCALAR"
    },
    {
      "bufferView": 2,
      "byteOffset": 3145536,
      "componentType": 5126,
      "count": 2984,
      "max": [
        0.18108800053596497,
        0.9843140244483948,
        0.9554039835929871
      ],
      "min": [
        -0.877813994884491,
        0.03237999975681305,
        -0.9971870183944702
      ],
      "type": "VEC3"
    },
    {
      "bufferView": 2,
      "byteOffset": 3181344,
      "componentType": 5126,
      "count": 2984,
      "max": [
        0.1817057728767395,
        0.9875010848045349,
        0.9568228125572205
      ],
      "min": [
        -0.8806864619255066,
        0.03410040959715843,
        -0.9982882142066956
      ],
      "type": "VEC3"
    },
    {
      "bufferView": 1,
      "byteOffset": 1048512,
      "componentType": 5126,
      "count": 2984,
      "max": [
        0.7471160292625427,
        0.9467710256576538
      ],
      "min": [
        0.5505949854850769,
        0.15396100282669067
      ],
      "type": "VEC2"
    },
    {
      "bufferView": 0,
      "byteOffset": 3037224,
      "componentType": 5125,
      "count": 14838,
      "type": "SCALAR"
    }
  ],
  "asset": {
    "extras": {
      "author": "Omer Bhatti (https://sketchfab.com/OmerBhatti)",
      "license": "CC-BY-4.0 (http://creativecommons.org/licenses/by/4.0/)",
      "source": "https://sketchfab.com/3d-models/jupiter-with-hd-texture-map-9dccc16d86c34af28792334089db7fe6",
      "title": "Jupiter with HD Texture Map"
    },
    "generator": "Sketchfab-12.67.0",
    "version": "2.0"
  },
  "bufferViews": [
    {
      "buffer": 0,
      "byteLength": 3096576,
      "name": "floatBufferViews",
      "target": 34963
    },
    {
      "buffer": 0,
      "byteLength": 1072384,
      "byteOffset": 3096576,
      "byteStride": 8,
      "name": "floatBufferViews",
      "target": 34962
    },
    {
      "buffer": 0,
      "byteLength": 3217152,
      "byteOffset": 4168960,
      "byteStride": 12,
      "name": "floatBufferViews",
      "target": 34962
    }
  ],
  "buffers": [
    {
      "byteLength": 7386112,
      "uri": "scene.bin"
    }
  ],
  "images": [
    {
      "uri": "textures/Material_baseColor.jpeg"
    }
  ],
  "materials": [
    {
      "doubleSided": true,
      "name": "Material",
      "pbrMetallicRoughness": {
        "baseColorTexture": {
          "index": 0
        },
        "metallicFactor": 0.0,
        "roughnessFactor": 0.8063508327
      }
    }
  ],
  "meshes": [
    {
      "name": "Object_0",
      "primitives": [
        {
          "attributes": {
            "NORMAL": 1,
            "POSITION": 0,
            "TEXCOORD_0": 2
          },
          "indices": 3,
          "material": 0,
          "mode": 4
        }
      ]
    },
    {
      "name": "Object_1",
      "primitives": [
        {
          "attributes": {
            "NORMAL": 5,
            "POSITION": 4,
            "TEXCOORD_0": 6
          },
          "indices": 7,
          "material": 0,
          "mode": 4
        }
      ]
    },
    {
      "name": "Object_2",
      "primitives": [
        {
          "attributes": {
            "NORMAL": 9,
            "POSITION": 8,
            "TEXCOORD_0": 10
          },
          "indices": 11,
          "material": 0,
          "mode": 4
        }
      ]
    }
  ],
  "nodes": [
    {
      "children": [
        1
      ],
      "matrix": [
        1.0,
        0.0,
        0.0,
        0.0,
        0.0,
        2.220446049250313e-16,
        -1.0,
        0.0,
        0.0,
        1.0,
        2.220446049250313e-16,
        0.0,
        0.0,
        0.0,
        0.0,
        1.0
      ],
      "name": "Sketchfab_model"
    },
    {
      "children": [
        2,
        3,
        4
      ],
      "name": "jupiter - Copy.obj.cleaner.materialmerger.gles"
    },
    {
      "mesh": 0,
      "name": "Object_2"
    },
    {
      "mesh": 1,
      "name": "Object_3"
    },
    {
      "mesh": 2,
      "name": "Object_4"
    }
  ],
  "samplers": [
    {
      "magFilter": 9729,
      "minFilter": 9987,
      "wrapS": 10497,
      "wrapT": 10497
    }
  ],
  "scene": 0,
  "scenes": [
    {
      "name": "Sketchfab_Scene",
      "nodes": [
        0
      ]
    }
  ],
  "textures": [
    {
      "sampler": 0,
      "source": 0
    }
  ]
}
