{
  "accessors": [
    {
      "bufferView": 2,
      "componentType": 5126,
      "count": 11818,
      "max": [
        3400.04296875,
        7806.4892578125,
        1109.2747802734375
      ],
      "min": [
        -3388.505859375,
        -7672.8857421875,
        -1017.4359741210938
      ],
      "type": "VEC3"
    },
    {
      "bufferView": 2,
      "byteOffset": 141816,
      "componentType": 5126,
      "count": 11818,
      "max": [
        1.0,
        1.0,
        1.0
      ],
      "min": [
        -1.0,
        -1.0,
        -1.0
      ],
      "type": "VEC3"
    },
    {
      "bufferView": 1,
      "componentType": 5126,
      "count": 11818,
      "max": [
        0.9980000257492065,
        0.9983999729156494
      ],
      "min": [
        0.0010999999940395355,
        0.002899999963119626
      ],
      "type": "VEC2"
    },
    {
      "bufferView": 0,
      "componentType": 5125,
      "count": 54753,
      "type": "SCALAR"
    },
    {
      "bufferView": 2,
      "byteOffset": 283632,
      "componentType": 5126,
      "count": 36,
      "max": [
        2600.09765625,
        -810.3065795898438,
        -59.907901763916016
      ],
      "min": [
        -2600.137451171875,
        -2320.1435546875,
        -70.01260375976563
      ],
      "type": "VEC3"
    },
    {
      "bufferView": 2,
      "byteOffset": 284064,
      "componentType": 5126,
      "count": 36,
      "max": [
        0.0,
        -0.0,
        1.0
      ],
      "min": [
        0.0,
        -0.0,
        1.0
      ],
      "type": "VEC3"
    },
    {
      "bufferView": 1,
      "byteOffset": 94544,
      "componentType": 5126,
      "count": 36,
      "max": [
        0.961899995803833,
        0.9731000065803528
      ],
      "min": [
        -0.0949999988079071,
        -0.3310999870300293
      ],
      "type": "VEC2"
    },
    {
      "bufferView": 0,
      "byteOffset": 219012,
      "componentType": 5125,
      "count": 72,
      "type": "SCALAR"
    },
    {
      "bufferView": 2,
      "byteOffset": 284496,
      "componentType": 5126,
      "count": 100,
      "max": [
        1650.113525390625,
        2034.75,
        50.04650115966797
      ],
      "min": [
        -1650.156494140625,
        -2115.0712890625,
        -289.4891052246094
      ],
      "type": "VEC3"
    },
    {
      "bufferView": 2,
      "byteOffset": 285696,
      "componentType": 5126,
      "count": 100,
      "max": [
        1.0,
        1.0,
        1.0
      ],
      "min": [
        -1.0,
        -1.0,
        -0.7131803631782532
      ],
      "type": "VEC3"
    },
    {
      "bufferView": 1,
      "byteOffset": 94832,
      "componentType": 5126,
      "count": 100,
      "max": [
        775.5,
        43.65629959106445
      ],
      "min": [
        -324.5,
        0.05909999832510948
      ],
      "type": "VEC2"
    },
    {
      "bufferView": 0,
      "byteOffset": 219300,
      "componentType": 5125,
      "count": 210,
      "type": "SCALAR"
    },
    {
      "bufferView": 2,
      "byteOffset": 286896,
      "componentType": 5126,
      "count": 2848,
      "max": [
        2600.097900390625,
        2034.7509765625,
        70.51100158691406
      ],
      "min": [
        -2600.138916015625,
        -2330.228515625,
        -310.0076904296875
      ],
      "type": "VEC3"
    },
    {
      "bufferView": 2,
      "byteOffset": 321072,
      "componentType": 5126,
      "count": 2848,
      "max": [
        1.0,
        1.0,
        1.0
      ],
      "min": [
        -1.0,
        -1.0,
        -1.0
      ],
      "type": "VEC3"
    },
    {
      "bufferView": 1,
      "byteOffset": 95632,
      "componentType": 5126,
      "count": 2848,
      "max": [
        1.0,
        1.0
      ],
      "min": [
        0.0,
        0.0
      ],
      "type": "VEC2"
    },
    {
      "bufferView": 0,
      "byteOffset": 220140,
      "componentType": 5125,
      "count": 13812,
      "type": "SCALAR"
    },
    {
      "bufferView": 2,
      "byteOffset": 355248,
      "componentType": 5126,
      "count": 5229,
      "max": [
        2600.470947265625,
        2034.748046875,
        70.0907974243164
      ],
      "min": [
        -2600.510986328125,
        -2320.14306640625,
        -314.9713134765625
      ],
      "type": "VEC3"
    },
    {
      "bufferView": 2,
      "byteOffset": 417996,
      "componentType": 5126,
      "count": 5229,
      "max": [
        1.0,
        1.0,
        1.0
      ],
      "min": [
        -1.0,
        -1.0,
        -1.0
      ],
      "type": "VEC3"
    },
    {
      "bufferView": 1,
      "byteOffset": 118416,
      "componentType": 5126,
      "count": 5229,
      "max": [
        1.7041000127792358,
        1.4097000360488892
      ],
      "min": [
        -0.09749999642372131,
        -0.4169999957084656
      ],
      "type": "VEC2"
    },
    {
      "bufferView": 0,
      "byteOffset": 275388,
      "componentType": 5125,
      "count": 14988,
      "type": "SCALAR"
    },
    {
      "bufferView": 2,
      "byteOffset": 480744,
      "componentType": 5126,
      "count": 1993,
      "max": [
        1389.1630859375,
        -3442.9873046875,
        160.28900146484375
      ],
      "min": [
        -1388.2332763671875,
        -5649.6435546875,
        -696.472412109375
      ],
      "type": "VEC3"
    },
    {
      "bufferView": 2,
      "byteOffset": 504660,
      "componentType": 5126,
      "count": 1993,
      "max": [
        1.0,
        0.17450137436389923,
        0.9999998807907104
      ],
      "min": [
        -0.9999997615814209,
        -1.0,
        -1.0
      ],
      "type": "VEC3"
    },
    {
      "bufferView": 1,
      "byteOffset": 160248,
      "componentType": 5126,
      "count": 1993,
      "max": [
        0.9965999722480774,
        0.718500018119812
      ],
      "min": [
        0.6606000065803528,
        0.002400000113993883
      ],
      "type": "VEC2"
    },
    {
      "bufferView": 0,
      "byteOffset": 335340,
      "componentType": 5125,
      "count": 6162,
      "type": "SCALAR"
    },
    {
      "bufferView": 2,
      "byteOffset": 528576,
      "componentType": 5126,
      "count": 276,
      "max": [
        2600.097412109375,
        -845.0430297851563,
        70.09130096435547
      ],
      "min": [
        -2600.138916015625,
        -2220.41064453125,
        -59.9734992980957
      ],
      "type": "VEC3"
    },
    {
      "bufferView": 2,
      "byteOffset": 531888,
      "componentType": 5126,
      "count": 276,
      "max": [
        1.0,
        1.0,
        0.0
      ],
      "min": [
        -1.0,
        -1.0,
        -1.0
      ],
      "type": "VEC3"
    },
    {
      "bufferView": 1,
      "byteOffset": 176192,
      "componentType": 5126,
      "count": 276,
      "max": [
        0.4993000030517578,
        0.6711000204086304
      ],
      "min": [
        0.49880000948905945,
        0.6707000136375427
      ],
      "type": "VEC2"
    },
    {
      "bufferView": 0,
      "byteOffset": 359988,
      "componentType": 5125,
      "count": 744,
      "type": "SCALAR"
    }
  ],
  "asset": {
    "extras": {
      "author": "lightwarrior (https://sketchfab.com/lightwarrior)",
      "license": "CC-BY-4.0 (http://creativecommons.org/licenses/by/4.0/)",
      "source": "https://sketchfab.com/3d-models/mc80-liberty-type-star-cruiser-bde70f99d7544fcd9bab766f700dcd7c",
      "title": "MC80 Liberty Type Star Cruiser"
    },
    "generator": "Sketchfab-12.78.0",
    "version": "2.0"
  },
  "bufferViews": [
    {
      "buffer": 0,
      "byteLength": 362964,
      "name": "floatBufferViews",
      "target": 34963
    },
    {
      "buffer": 0,
      "byteLength": 178400,
      "byteOffset": 362964,
      "byteStride": 8,
      "name": "floatBufferViews",
      "target": 34962
    },
    {
      "buffer": 0,
      "byteLength": 535200,
      "byteOffset": 541364,
      "byteStride": 12,
      "name": "floatBufferViews",
      "target": 34962
    }
  ],
  "buffers": [
    {
      "byteLength": 1076564,
      "uri": "scene.bin"
    }
  ],
  "images": [
    {
      "uri": "textures/10dd21c5_dds_baseColor.png"
    },
    {
      "uri": "textures/13996549_dds_baseColor.png"
    },
    {
      "uri": "textures/51fcc772_dds_baseColor.png"
    },
    {
      "uri": "textures/539aafc5_dds_baseColor.png"
    },
    {
      "uri": "textures/7aae8e3b_dds_baseColor.png"
    },
    {
      "uri": "textures/7aae8e3b_dds_emissive.png"
    },
    {
      "uri": "textures/7f962d07_dds_baseColor.png"
    },
    {
      "uri": "textures/7f962d07_dds_emissive.png"
    }
  ],
  "materials": [
    {
      "doubleSided": true,
      "name": "10dd21c5_dds",
      "pbrMetallicRoughness": {
        "baseColorTexture": {
          "index": 0
        },
        "roughnessFactor": 0.6
      }
    },
    {
      "doubleSided": true,
      "name": "13996549_dds",
      "pbrMetallicRoughness": {
        "baseColorTexture": {
          "index": 1
        },
        "metallicFactor": 0.0,
        "roughnessFactor": 0.6
      }
    },
    {
      "doubleSided": true,
      "name": "51fcc772_dds",
      "pbrMetallicRoughness": {
        "baseColorTexture": {
          "index": 2
        },
        "roughnessFactor": 0.6
      }
    },
    {
      "doubleSided": true,
      "name": "539aafc5_dds",
      "pbrMetallicRoughness": {
        "baseColorTexture": {
          "index": 3
        },
        "roughnessFactor": 0.6
      }
    },
    {
      "doubleSided": true,
      "emissiveFactor": [
        1.0,
        1.0,
        1.0
      ],
      "emissiveTexture": {
        "index": 5
      },
      "name": "7aae8e3b_dds",
      "pbrMetallicRoughness": {
        "baseColorTexture": {
          "index": 4
        },
        "roughnessFactor": 0.6
      }
    },
    {
      "doubleSided": true,
      "emissiveFactor": [
        1.0,
        1.0,
        1.0
      ],
      "emissiveTexture": {
        "index": 7
      },
      "name": "7f962d07_dds",
      "pbrMetallicRoughness": {
        "baseColorTexture": {
          "index": 6
        },
        "roughnessFactor": 0.6
      }
    },
    {
      "doubleSided": true,
      "emissiveFactor": [
        1.0,
        1.0,
        1.0
      ],
      "emissiveTexture": {
        "index": 5
      },
      "name": "e3727963_dds",
      "pbrMetallicRoughness": {
        "baseColorTexture": {
          "index": 4
        },
        "roughnessFactor": 0.6
      }
    }
  ],
  "meshes": [
    {
      "name": "Object_0",
      "primitives": [
        {
          "attributes": {
            "NORMAL": 1,
            "POSITION": 0,
            "TEXCOORD_0": 2
          },
          "indices": 3,
          "material": 6,
          "mode": 4
        }
      ]
    },
    {
      "name": "Object_1",
      "primitives": [
        {
          "attributes": {
            "NORMAL": 5,
            "POSITION": 4,
            "TEXCOORD_0": 6
          },
          "indices": 7,
          "material": 0,
          "mode": 4
        }
      ]
    },
    {
      "name": "Object_2",
      "primitives": [
        {
          "attributes": {
            "NORMAL": 9,
            "POSITION": 8,
            "TEXCOORD_0": 10
          },
          "indices": 11,
          "material": 3,
          "mode": 4
        }
      ]
    },
    {
      "name": "Object_3",
      "primitives": [
        {
          "attributes": {
            "NORMAL": 13,
            "POSITION": 12,
            "TEXCOORD_0": 14
          },
          "indices": 15,
          "material": 2,
          "mode": 4
        }
      ]
    },
    {
      "name": "Object_4",
      "primitives": [
        {
          "attributes": {
            "NORMAL": 17,
            "POSITION": 16,
            "TEXCOORD_0": 18
          },
          "indices": 19,
          "material": 1,
          "mode": 4
        }
      ]
    },
    {
      "name": "Object_5",
      "primitives": [
        {
          "attributes": {
            "NORMAL": 21,
            "POSITION": 20,
            "TEXCOORD_0": 22
          },
          "indices": 23,
          "material": 4,
          "mode": 4
        }
      ]
    },
    {
      "name": "Object_6",
      "primitives": [
        {
          "attributes": {
            "NORMAL": 25,
            "POSITION": 24,
            "TEXCOORD_0": 26
          },
          "indices": 27,
          "material": 5,
          "mode": 4
        }
      ]
    }
  ],
  "nodes": [
    {
      "children": [
        1
      ],
      "matrix": [
        1.0,
        0.0,
        0.0,
        0.0,
        0.0,
        2.220446049250313e-16,
        -1.0,
        0.0,
        0.0,
        1.0,
        2.220446049250313e-16,
        0.0,
        0.0,
        0.0,
        0.0,
        1.0
      ],
      "name": "Sketchfab_model"
    },
    {
      "children": [
        2,
        3,
        4,
        5,
        6,
        7,
        8
      ],
      "name": "MC80 Liberty type Star Cruiser.obj.cleaner.materialmerger.gles"
    },
    {
      "mesh": 0,
      "name": "Object_2"
    },
    {
      "mesh": 1,
      "name": "Object_3"
    },
    {
      "mesh": 2,
      "name": "Object_4"
    },
    {
      "mesh": 3,
      "name": "Object_5"
    },
    {
      "mesh": 4,
      "name": "Object_6"
    },
    {
      "mesh": 5,
      "name": "Object_7"
    },
    {
      "mesh": 6,
      "name": "Object_8"
    }
  ],
  "samplers": [
    {
      "magFilter": 9729,
      "minFilter": 9987,
      "wrapS": 10497,
      "wrapT": 10497
    }
  ],
  "scene": 0,
  "scenes": [
    {
      "name": "Sketchfab_Scene",
      "nodes": [
        0
      ]
    }
  ],
  "textures": [
    {
      "sampler": 0,
      "source": 0
    },
    {
      "sampler": 0,
      "source": 1
    },
    {
      "sampler": 0,
      "source": 2
    },
    {
      "sampler": 0,
      "source": 3
    },
    {
      "sampler": 0,
      "source": 4
    },
    {
      "sampler": 0,
      "source": 5
    },
    {
      "sampler": 0,
      "source": 6
    },
    {
      "sampler": 0,
      "source": 7
    }
  ]
}
