{
  "accessors": [
    {
      "bufferView": 2,
      "componentType": 5126,
      "count": 12,
      "max": [
        1.9729727506637573,
        0.2745513916015625,
        1.2839316129684448
      ],
      "min": [
        -1.9729727506637573,
        0.269082248210907,
        -0.7148129343986511
      ],
      "type": "VEC3"
    },
    {
      "bufferView": 2,
      "byteOffset": 144,
      "componentType": 5126,
      "count": 12,
      "max": [
        0.9508289694786072,
        0.0342426598072052,
        0.5434575080871582
      ],
      "min": [
        -0.9508289694786072,
        -0.7005311846733093,
        -0.5912193059921265
      ],
      "type": "VEC3"
    },
    {
      "bufferView": 1,
      "componentType": 5126,
      "count": 12,
      "max": [
        0.0,
        0.0
      ],
      "min": [
        0.0,
        0.0
      ],
      "type": "VEC2"
    },
    {
      "bufferView": 0,
      "componentType": 5125,
      "count": 24,
      "type": "SCALAR"
    },
    {
      "bufferView": 2,
      "byteOffset": 288,
      "componentType": 5126,
      "count": 1431,
      "max": [
        1.9729727506637573,
        2.3268699645996094,
        4.280806064605713
      ],
      "min": [
        -1.9729727506637573,
        -1.3778407573699951,
        -3.9890308380126953
      ],
      "type": "VEC3"
    },
    {
      "bufferView": 2,
      "byteOffset": 17460,
      "componentType": 5126,
      "count": 1431,
      "max": [
        1.0,
        1.0,
        1.0
      ],
      "min": [
        -1.0,
        -1.0,
        -1.0
      ],
      "type": "VEC3"
    },
    {
      "bufferView": 1,
      "byteOffset": 96,
      "componentType": 5126,
      "count": 1431,
      "max": [
        0.9693927764892578,
        0.9750785827636719
      ],
      "min": [
        0.024146312847733498,
        0.022480005398392677
      ],
      "type": "VEC2"
    },
    {
      "bufferView": 0,
      "byteOffset": 96,
      "componentType": 5125,
      "count": 4206,
      "type": "SCALAR"
    },
    {
      "bufferView": 2,
      "byteOffset": 34632,
      "componentType": 5126,
      "count": 171,
      "max": [
        2.1564648151397705,
        4.575135707855225,
        1.6032683849334717
      ],
      "min": [
        -1.7816851139068604,
        0.7818906307220459,
        -2.7554585933685303
      ],
      "type": "VEC3"
    },
    {
      "bufferView": 2,
      "byteOffset": 36684,
      "componentType": 5126,
      "count": 171,
      "max": [
        0.9998416900634766,
        1.0,
        0.9997093677520752
      ],
      "min": [
        -0.9998416900634766,
        -0.9683120846748352,
        -0.9997093677520752
      ],
      "type": "VEC3"
    },
    {
      "bufferView": 1,
      "byteOffset": 11544,
      "componentType": 5126,
      "count": 171,
      "max": [
        0.6751611232757568,
        0.2386002242565155
      ],
      "min": [
        0.46727854013442993,
        0.011104792356491089
      ],
      "type": "VEC2"
    },
    {
      "bufferView": 0,
      "byteOffset": 16920,
      "componentType": 5125,
      "count": 513,
      "type": "SCALAR"
    },
    {
      "bufferView": 2,
      "byteOffset": 38736,
      "componentType": 5126,
      "count": 658,
      "max": [
        2.9940991401672363,
        6.1037068367004395,
        1.3078826665878296
      ],
      "min": [
        -2.9940991401672363,
        0.2710944414138794,
        -2.612743616104126
      ],
      "type": "VEC3"
    },
    {
      "bufferView": 2,
      "byteOffset": 46632,
      "componentType": 5126,
      "count": 658,
      "max": [
        0.9995832443237305,
        1.0,
        0.999725341796875
      ],
      "min": [
        -1.0,
        -1.0,
        -0.999725341796875
      ],
      "type": "VEC3"
    },
    {
      "bufferView": 1,
      "byteOffset": 12912,
      "componentType": 5126,
      "count": 658,
      "max": [
        0.43524330854415894,
        0.48635923862457275
      ],
      "min": [
        0.15785039961338043,
        0.07379072904586792
      ],
      "type": "VEC2"
    },
    {
      "bufferView": 0,
      "byteOffset": 18972,
      "componentType": 5125,
      "count": 1752,
      "type": "SCALAR"
    },
    {
      "bufferView": 2,
      "byteOffset": 54528,
      "componentType": 5126,
      "count": 197,
      "max": [
        3.7913875579833984,
        6.80230712890625,
        2.511256456375122
      ],
      "min": [
        -3.7913875579833984,
        4.76837158203125e-07,
        -2.5112552642822266
      ],
      "type": "VEC3"
    },
    {
      "bufferView": 2,
      "byteOffset": 56892,
      "componentType": 5126,
      "count": 197,
      "max": [
        0.9846017360687256,
        1.0,
        1.0
      ],
      "min": [
        -0.9846017360687256,
        -0.732425332069397,
        -1.0
      ],
      "type": "VEC3"
    },
    {
      "bufferView": 1,
      "byteOffset": 18176,
      "componentType": 5126,
      "count": 197,
      "max": [
        0.1788482666015625,
        0.23468881845474243
      ],
      "min": [
        0.023462265729904175,
        0.007067146711051464
      ],
      "type": "VEC2"
    },
    {
      "bufferView": 0,
      "byteOffset": 25980,
      "componentType": 5125,
      "count": 552,
      "type": "SCALAR"
    },
    {
      "bufferView": 2,
      "byteOffset": 59256,
      "componentType": 5126,
      "count": 48,
      "max": [
        1.7307313680648804,
        1.46603524684906,
        1.1686875820159912
      ],
      "min": [
        -1.6615055799484253,
        0.03909522294998169,
        -2.3789632320404053
      ],
      "type": "VEC3"
    },
    {
      "bufferView": 2,
      "byteOffset": 59832,
      "componentType": 5126,
      "count": 48,
      "max": [
        1.0,
        0.6951351761817932,
        0.6200344562530518
      ],
      "min": [
        -1.0,
        -0.8058360815048218,
        -0.7188791036605835
      ],
      "type": "VEC3"
    },
    {
      "bufferView": 1,
      "byteOffset": 19752,
      "componentType": 5126,
      "count": 48,
      "max": [
        0.5748422741889954,
        0.8906331062316895
      ],
      "min": [
        0.33214280009269714,
        0.42589324712753296
      ],
      "type": "VEC2"
    },
    {
      "bufferView": 0,
      "byteOffset": 28188,
      "componentType": 5125,
      "count": 66,
      "type": "SCALAR"
    },
    {
      "bufferView": 2,
      "byteOffset": 60408,
      "componentType": 5126,
      "count": 48,
      "max": [
        1.6615055799484253,
        1.5566999912261963,
        2.884180784225464
      ],
      "min": [
        -1.8579365015029907,
        0.269082248210907,
        -3.8863584995269775
      ],
      "type": "VEC3"
    },
    {
      "bufferView": 2,
      "byteOffset": 60984,
      "componentType": 5126,
      "count": 48,
      "max": [
        1.0,
        0.0,
        1.0
      ],
      "min": [
        -0.997157096862793,
        0.0,
        -1.0
      ],
      "type": "VEC3"
    },
    {
      "bufferView": 1,
      "byteOffset": 20136,
      "componentType": 5126,
      "count": 48,
      "max": [
        0.42942366003990173,
        0.3952372968196869
      ],
      "min": [
        0.41805580258369446,
        0.13254380226135254
      ],
      "type": "VEC2"
    },
    {
      "bufferView": 0,
      "byteOffset": 28452,
      "componentType": 5125,
      "count": 108,
      "type": "SCALAR"
    },
    {
      "bufferView": 2,
      "byteOffset": 61560,
      "componentType": 5126,
      "count": 495,
      "max": [
        1.000000238418579,
        0.9807852506637573,
        1.0000003576278687
      ],
      "min": [
        -0.9999998211860657,
        -0.9807853102684021,
        -1.0
      ],
      "type": "VEC3"
    },
    {
      "bufferView": 2,
      "byteOffset": 67500,
      "componentType": 5126,
      "count": 495,
      "max": [
        1.0,
        0.9569501280784607,
        1.0
      ],
      "min": [
        -1.0,
        -0.9569501280784607,
        -1.0
      ],
      "type": "VEC3"
    },
    {
      "bufferView": 1,
      "byteOffset": 20520,
      "componentType": 5126,
      "count": 495,
      "max": [
        1.000000238418579,
        0.9375001192092896
      ],
      "min": [
        0.0,
        0.06249988079071045
      ],
      "type": "VEC2"
    },
    {
      "bufferView": 0,
      "byteOffset": 28884,
      "componentType": 5125,
      "count": 2688,
      "type": "SCALAR"
    }
  ],
  "asset": {
    "extras": {
      "author": "taj_tajima (https://sketchfab.com/taj_tajima)",
      "license": "CC-BY-4.0 (http://creativecommons.org/licenses/by/4.0/)",
      "source": "https://sketchfab.com/3d-models/merry-go-19fe4c3ac91b4c5596fe89578eb17b8e",
      "title": "Merry GO"
    },
    "generator": "Sketchfab-12.68.0",
    "version": "2.0"
  },
  "bufferViews": [
    {
      "buffer": 0,
      "byteLength": 39636,
      "name": "floatBufferViews",
      "target": 34963
    },
    {
      "buffer": 0,
      "byteLength": 24480,
      "byteOffset": 39636,
      "byteStride": 8,
      "name": "floatBufferViews",
      "target": 34962
    },
    {
      "buffer": 0,
      "byteLength": 73440,
      "byteOffset": 64116,
      "byteStride": 12,
      "name": "floatBufferViews",
      "target": 34962
    }
  ],
  "buffers": [
    {
      "byteLength": 137556,
      "uri": "scene.bin"
    }
  ],
  "images": [
    {
      "uri": "textures/mat_goingMerry_baseColor.png"
    },
    {
      "uri": "textures/mat_goingMerry_metallicRoughness.png"
    },
    {
      "uri": "textures/mat_mast_baseColor.png"
    }
  ],
  "materials": [
    {
      "doubleSided": true,
      "name": "Material",
      "pbrMetallicRoughness": {
        "baseColorFactor": [
          0.23955,
          0.07616819999999995,
          0.018825199999999986,
          1.0
        ],
        "metallicFactor": 0.0,
        "roughnessFactor": 0.5
      }
    },
    {
      "doubleSided": true,
      "name": "mat_goingMerry",
      "occlusionTexture": {
        "index": 1,
        "strength": 0.36606229519524647
      },
      "pbrMetallicRoughness": {
        "baseColorTexture": {
          "index": 0
        },
        "metallicFactor": 0.0,
        "metallicRoughnessTexture": {
          "index": 1
        },
        "roughnessFactor": 0.5
      }
    },
    {
      "doubleSided": true,
      "name": "mat_mast",
      "pbrMetallicRoughness": {
        "baseColorTexture": {
          "index": 2
        },
        "metallicFactor": 0.0,
        "roughnessFactor": 0.5
      }
    },
    {
      "doubleSided": true,
      "name": "mat_cabin",
      "pbrMetallicRoughness": {
        "baseColorTexture": {
          "index": 2
        },
        "metallicFactor": 0.0
      }
    },
    {
      "doubleSided": true,
      "name": "mat_stairs",
      "pbrMetallicRoughness": {
        "baseColorTexture": {
          "index": 2
        },
        "metallicFactor": 0.0,
        "roughnessFactor": 0.5
      }
    },
    {
      "doubleSided": true,
      "name": "mat_rails",
      "pbrMetallicRoughness": {
        "baseColorTexture": {
          "index": 3
        },
        "metallicFactor": 0.0,
        "roughnessFactor": 0.5
      }
    },
    {
      "alphaMode": "BLEND",
      "name": "Material.009",
      "pbrMetallicRoughness": {
        "baseColorFactor": [
          0.060866399999999966,
          0.32508399999999954,
          0.7999999999999999,
          0.0
        ],
        "metallicFactor": 0.0,
        "roughnessFactor": 0.5
      }
    }
  ],
  "meshes": [
    {
      "name": "Object_0",
      "primitives": [
        {
          "attributes": {
            "NORMAL": 1,
            "POSITION": 0,
            "TEXCOORD_0": 2
          },
          "indices": 3,
          "material": 0,
          "mode": 4
        }
      ]
    },
    {
      "name": "Object_1",
      "primitives": [
        {
          "attributes": {
            "NORMAL": 5,
            "POSITION": 4,
            "TEXCOORD_0": 6
          },
          "indices": 7,
          "material": 1,
          "mode": 4
        }
      ]
    },
    {
      "name": "Object_2",
      "primitives": [
        {
          "attributes": {
            "NORMAL": 9,
            "POSITION": 8,
            "TEXCOORD_0": 10
          },
          "indices": 11,
          "material": 2,
          "mode": 4
        }
      ]
    },
    {
      "name": "Object_3",
      "primitives": [
        {
          "attributes": {
            "NORMAL": 13,
            "POSITION": 12,
            "TEXCOORD_0": 14
          },
          "indices": 15,
          "material": 2,
          "mode": 4
        }
      ]
    },
    {
      "name": "Object_4",
      "primitives": [
        {
          "attributes": {
            "NORMAL": 17,
            "POSITION": 16,
            "TEXCOORD_0": 18
          },
          "indices": 19,
          "material": 3,
          "mode": 4
        }
      ]
    },
    {
      "name": "Object_5",
      "primitives": [
        {
          "attributes": {
            "NORMAL": 21,
            "POSITION": 20,
            "TEXCOORD_0": 22
          },
          "indices": 23,
          "material": 4,
          "mode": 4
        }
      ]
    },
    {
      "name": "Object_6",
      "primitives": [
        {
          "attributes": {
            "NORMAL": 25,
            "POSITION": 24,
            "TEXCOORD_0": 26
          },
          "indices": 27,
          "material": 5,
          "mode": 4
        }
      ]
    },
    {
      "name": "Object_7",
      "primitives": [
        {
          "attributes": {
            "NORMAL": 29,
            "POSITION": 28,
            "TEXCOORD_0": 30
          },
          "indices": 31,
          "material": 6,
          "mode": 4
        }
      ]
    }
  ],
  "nodes": [
    {
      "children": [
        1
      ],
      "matrix": [
        1.0,
        0.0,
        0.0,
        0.0,
        0.0,
        3.828568672208042e-16,
        -1.0,
        0.0,
        0.0,
        1.0,
        3.828568672208042e-16,
        0.0,
        0.0,
        3.388131789017202e-21,
        -3.3881317890172006e-21,
        1.0
      ],
      "name": "Sketchfab_model"
    },
    {
      "children": [
        2
      ],
      "name": "root"
    },
    {
      "children": [
        3,
        6,
        8,
        10,
        12,
        14,
        16
      ],
      "matrix": [
        1.0,
        0.0,
        0.0,
        0.0,
        0.0,
        2.220446049250313e-16,
        1.0,
        0.0,
        0.0,
        -1.0,
        2.220446049250313e-16,
        0.0,
        0.0,
        0.0,
        0.0,
        1.0
      ],
      "name": "GLTF_SceneRootNode"
    },
    {
      "children": [
        4,
        5
      ],
      "name": "Cube_0"
    },
    {
      "mesh": 0,
      "name": "Object_4"
    },
    {
      "mesh": 1,
      "name": "Object_5"
    },
    {
      "children": [
        7
      ],
      "matrix": [
        1.0,
        0.0,
        0.0,
        0.0,
        0.0,
        1.0,
        0.0,
        0.0,
        0.0,
        0.0,
        1.0,
        0.0,
        0.0,
        0.0,
        0.0319090411067009,
        1.0
      ],
      "name": "Cube.001_1"
    },
    {
      "mesh": 2,
      "name": "Object_7"
    },
    {
      "children": [
        9
      ],
      "name": "Cube.002_2"
    },
    {
      "mesh": 3,
      "name": "Object_9"
    },
    {
      "children": [
        11
      ],
      "matrix": [
        0.23506098985671997,
        0.0,
        0.0,
        0.0,
        0.0,
        0.23506098985671997,
        0.0,
        0.0,
        0.0,
        0.0,
        0.23506098985671997,
        0.0,
        0.0,
        0.9999997615814209,
        -1.392116665840149,
        1.0
      ],
      "name": "Cube.003_3"
    },
    {
      "mesh": 4,
      "name": "Object_11"
    },
    {
      "children": [
        13
      ],
      "matrix": [
        1.0,
        0.0,
        0.0,
        0.0,
        0.0,
        1.0,
        0.0,
        0.0,
        0.0,
        0.0,
        1.0,
        0.0,
        0.0,
        0.2354561686515808,
        0.0,
        1.0
      ],
      "name": "Cube.004_4"
    },
    {
      "mesh": 5,
      "name": "Object_13"
    },
    {
      "children": [
        15
      ],
      "name": "Cube.005_5"
    },
    {
      "mesh": 6,
      "name": "Object_15"
    },
    {
      "children": [
        17
      ],
      "matrix": [
        49.17610168457031,
        0.0,
        0.0,
        0.0,
        0.0,
        49.17610168457031,
        0.0,
        0.0,
        0.0,
        0.0,
        49.17610168457031,
        0.0,
        0.0,
        0.0,
        0.0,
        1.0
      ],
      "name": "Sphere_11"
    },
    {
      "mesh": 7,
      "name": "Object_17"
    }
  ],
  "samplers": [
    {
      "magFilter": 9728,
      "minFilter": 9728,
      "wrapS": 10497,
      "wrapT": 10497
    },
    {
      "magFilter": 9729,
      "minFilter": 9987,
      "wrapS": 10497,
      "wrapT": 10497
    },
    {
      "magFilter": 9728,
      "minFilter": 9986,
      "wrapS": 10497,
      "wrapT": 10497
    }
  ],
  "scene": 0,
  "scenes": [
    {
      "name": "Sketchfab_Scene",
      "nodes": [
        0
      ]
    }
  ],
  "textures": [
    {
      "sampler": 0,
      "source": 0
    },
    {
      "sampler": 1,
      "source": 1
    },
    {
      "sampler": 0,
      "source": 2
    },
    {
      "sampler": 2,
      "source": 0
    }
  ]
}
